# xmcd
#
# Track frame offsets:
#	150
#	13038
#	24688
#	37108
#	49714
#	63423
#	74910
#	88690
#	101282
#	118606
#	131935
#	142255
#	160174
#	172937
#	186307
#	201862
#	217803
#	230938
#	242557
#	254687
#
# Disc length: 3591 seconds
#
# Revision: 1
# Processed by: cddbd v1.5.2PL0 Copyright (c) Steve Scherf et al.
# Submitted via: dBpowerAMP V4.0
#
DISCID=330e0514
DTITLE=Various Artist - Very Best Of Blues Brother Soul Sister
DYEAR=2005
DGENRE=Blues
TTITLE0=Percy Sledge - When a man loves a woman
TTITLE1=Etta James - I'd rather go blind
TTITLE2=Albert King - Born under a bad sign
TTITLE3=JR Walker and the All Stars - I'm a road runner
TTITLE4=Otis Redding and Carla Thomas - Tramp
TTITLE5=Sam and Dave - Soul sister brown sugar
TTITLE6=Howlin' Wolf - Smokestack Lightnin'
TTITLE7=Betty Wright - Clean up woman
TTITLE8=Brook Benton - Rainy night in Georgia
TTITLE9=Joe Tex - Show me
TTITLE10=Aretha Franklin - Think
TTITLE11=Muddy Waters - Mannish boy
TTITLE12=Tommy Tucker - High heel sneakers
TTITLE13=Jackie Wilson - I get the sweetest feeling
TTITLE14=Millie Jackson - If loving you is wrong I don't want to be right
TTITLE15=Dobie Gray - Drift away
TTITLE16=Billie Holiday - That ole devil called love
TTITLE17=Solomon Burke - If you need me
TTITLE18=Ottis Redding - Sittin' on the dock of the bay
TTITLE19=Nina Simone - Angel of the morning
EXTD=
EXTT0=
EXTT1=
EXTT2=
EXTT3=
EXTT4=
EXTT5=
EXTT6=
EXTT7=
EXTT8=
EXTT9=
EXTT10=
EXTT11=
EXTT12=
EXTT13=
EXTT14=
EXTT15=
EXTT16=
EXTT17=
EXTT18=
EXTT19=
PLAYORDER=
